<svg xmlns="http://www.w3.org/2000/svg" viewBox="0 0 24 24" fill="#FFFFFF"><path d="M23.9,18.2l-0.8-0.6c0-0.1,0-0.2,0-0.4s0-0.2,0-0.4l0.8-0.6c0.1-0.1,0.1-0.2,0-0.2l-0.8-1.3c0-0.1-0.1-0.1-0.2-0.1L22.1,15
	c-0.2-0.2-0.4-0.3-0.6-0.4l-0.1-1c0-0.1-0.1-0.2-0.2-0.2h-1.5c-0.1,0-0.2,0.1-0.2,0.2l-0.1,1c-0.2,0.1-0.4,0.2-0.6,0.4l-0.9-0.4
	c-0.1,0-0.2,0-0.2,0.1L16.7,16c0,0.1,0,0.2,0,0.2l0.8,0.6c0,0.1,0,0.2,0,0.4s0,0.2,0,0.4l-0.8,0.6c-0.1,0.1-0.1,0.2,0,0.2l0.8,1.3
	c0,0.1,0.1,0.1,0.2,0.1l0.9-0.4c0.2,0.2,0.4,0.3,0.6,0.4l0.1,1c0,0.1,0.1,0.2,0.2,0.2h1.5c0.1,0,0.2-0.1,0.2-0.2l0.1-1
	c0.2-0.1,0.4-0.2,0.6-0.4l0.9,0.4c0.1,0,0.2,0,0.2-0.1l0.8-1.3C24,18.4,24,18.3,23.9,18.2z M20.3,18.4c-0.6,0-1.1-0.5-1.1-1.1
	s0.5-1.1,1.1-1.1c0.6,0,1.1,0.5,1.1,1.1S21,18.4,20.3,18.4z"/><ellipse cx="8" cy="8" rx="3" ry="3"/><ellipse cx="16" cy="8" rx="3" ry="3"/><path d="M8,13c0.3,0,0.6,0,1,0c-1.2,0.8-2,2-2,3.5V19H1v-2.5C1,14.2,5.7,13,8,13z"/><path d="M15,19H9v-2.5c0-2.3,4.7-3.5,7-3.5c0.2,0,0.4,0,0.6,0c-1.2,1-1.9,2.5-1.9,4.2C14.7,17.9,14.8,18.4,15,19z"/></svg>